<?xml version="1.0" encoding="utf-8"?>
<!-- Generator: Adobe Illustrator 18.1.1, SVG Export Plug-In . SVG Version: 6.00 Build 0)  -->
<svg version="1.1" id="Layer_1" xmlns="http://www.w3.org/2000/svg" xmlns:xlink="http://www.w3.org/1999/xlink" x="0px" y="0px"
	 viewBox="0 0 450 450" enable-background="new 0 0 450 450" xml:space="preserve">
<linearGradient id="SVGID_1_" gradientUnits="userSpaceOnUse" x1="221.1943" y1="230.0998" x2="436.3094" y2="14.9848">
	<stop  offset="1.237640e-02" style="stop-color:#7673C0"/>
	<stop  offset="1" style="stop-color:#9893D0"/>
</linearGradient>
<polygon fill="url(#SVGID_1_)" points="436.3,56.8 436.3,56.8 436.3,15 238.9,15 313.3,89.4 318.1,94.1 318.7,94.7 225.5,187.9 
	225.6,188.1 202.4,211.3 242.2,251.1 262.4,230.8 262.9,231.3 262.9,231.3 359.1,135.2 363.7,139.7 436.3,212.4 436.3,57.9 
	436.3,57.9 436.3,57.9 436.3,56.8 "/>
<linearGradient id="SVGID_2_" gradientUnits="userSpaceOnUse" x1="308.5279" y1="84.742" x2="118.7046" y2="413.5255">
	<stop  offset="0" style="stop-color:#263746"/>
	<stop  offset="0.321" style="stop-color:#2E3E4C"/>
	<stop  offset="0.8155" style="stop-color:#44515F"/>
	<stop  offset="1" style="stop-color:#4D5A67"/>
</linearGradient>
<path fill="url(#SVGID_2_)" d="M394,218c-2.1,25.8-10.2,51.7-17.5,70.8c-3.1,9.2-6.9,18-11.4,26.4c-1.1,2.3-1.8,3.5-1.8,3.5l0-0.3
	c-27.1,47.9-76.6,79.9-137.6,79.9c-93.6,0-161.5-76.1-161.5-169.1V228c0-79,48.2-144.8,120.1-162.8c13.4-4,29.3-7.5,47.6-9.2
	l-36.6-36.6C87.6,34,16.3,125.7,16.3,229.2v1.2C16.3,343.3,100,441,224.6,441c114.5,0,195.4-83.5,207.7-184.6L394,218z"/>
</svg>
